<svg xmlns="http://www.w3.org/2000/svg" viewBox="0 0 64 64">
  <rect width="64" height="64" rx="14" fill="#CC0000"/>
  <path fill="#ffffff" d="M50.5 30.2 47 21.6c-.7-1.7-2.3-2.8-4.1-2.8H21.1c-1.8 0-3.4 1.1-4.1 2.8l-3.5 8.6C11.5 30.9 10 32.9 10 35.3v9.4c0 1.2.9 2.1 2.1 2.1h2.1c1.2 0 2.1-.9 2.1-2.1v-2.1h31.4v2.1c0 1.2.9 2.1 2.1 2.1h2.1c1.2 0 2.1-.9 2.1-2.1v-9.4c0-2.4-1.5-4.4-3.5-5.1zM21.1 23h21.8l3 7.4H18.1l3-7.4zM16.4 39.2c-1.7 0-3.1-1.4-3.1-3.1s1.4-3.1 3.1-3.1 3.1 1.4 3.1 3.1-1.4 3.1-3.1 3.1zm31.2 0c-1.7 0-3.1-1.4-3.1-3.1s1.4-3.1 3.1-3.1 3.1 1.4 3.1 3.1-1.4 3.1-3.1 3.1z"/>
</svg>
